<svg width="110" height="110" fill="none" xmlns="http://www.w3.org/2000/svg"><g clip-path="url('#clip0_184_1385')"><path d="M0 0h4.4v4.4H0V0Zm4.4 0h4.4v4.4H4.4V0Zm4.4 0h4.4v4.4H8.8V0Zm4.4 0h4.4v4.4h-4.4V0Zm4.4 0H22v4.4h-4.4V0ZM22 0h4.4v4.4H22V0Zm4.4 0h4.4v4.4h-4.4V0ZM44 0h4.4v4.4H44V0Zm8.8 0h4.4v4.4h-4.4V0Zm4.4 0h4.4v4.4h-4.4V0Zm13.2 0h4.4v4.4h-4.4V0Zm8.8 0h4.4v4.4h-4.4V0Zm4.4 0H88v4.4h-4.4V0ZM88 0h4.4v4.4H88V0Zm4.4 0h4.4v4.4h-4.4V0Zm4.4 0h4.4v4.4h-4.4V0Zm4.4 0h4.4v4.4h-4.4V0Zm4.4 0h4.4v4.4h-4.4V0ZM0 4.4h4.4v4.4H0V4.4Zm26.4 0h4.4v4.4h-4.4V4.4Zm8.8 0h4.4v4.4h-4.4V4.4Zm8.8 0h4.4v4.4H44V4.4Zm17.6 0H66v4.4h-4.4V4.4Zm4.4 0h4.4v4.4H66V4.4Zm4.4 0h4.4v4.4h-4.4V4.4Zm8.8 0h4.4v4.4h-4.4V4.4Zm26.4 0h4.4v4.4h-4.4V4.4ZM0 8.8h4.4v4.4H0V8.8Zm8.8 0h4.4v4.4H8.8V8.8Zm4.4 0h4.4v4.4h-4.4V8.8Zm4.4 0H22v4.4h-4.4V8.8Zm8.8 0h4.4v4.4h-4.4V8.8Zm26.4 0h4.4v4.4h-4.4V8.8Zm8.8 0H66v4.4h-4.4V8.8Zm8.8 0h4.4v4.4h-4.4V8.8Zm8.8 0h4.4v4.4h-4.4V8.8Zm8.8 0h4.4v4.4H88V8.8Zm4.4 0h4.4v4.4h-4.4V8.8Zm4.4 0h4.4v4.4h-4.4V8.8Zm8.8 0h4.4v4.4h-4.4V8.8ZM0 13.2h4.4v4.4H0v-4.4Zm8.8 0h4.4v4.4H8.8v-4.4Zm4.4 0h4.4v4.4h-4.4v-4.4Zm4.4 0H22v4.4h-4.4v-4.4Zm8.8 0h4.4v4.4h-4.4v-4.4Zm8.8 0h4.4v4.4h-4.4v-4.4Zm4.4 0H44v4.4h-4.4v-4.4Zm4.4 0h4.4v4.4H44v-4.4Zm8.8 0h4.4v4.4h-4.4v-4.4Zm4.4 0h4.4v4.4h-4.4v-4.4Zm4.4 0H66v4.4h-4.4v-4.4Zm17.6 0h4.4v4.4h-4.4v-4.4Zm8.8 0h4.4v4.4H88v-4.4Zm4.4 0h4.4v4.4h-4.4v-4.4Zm4.4 0h4.4v4.4h-4.4v-4.4Zm8.8 0h4.4v4.4h-4.4v-4.4ZM0 17.6h4.4V22H0v-4.4Zm8.8 0h4.4V22H8.8v-4.4Zm4.4 0h4.4V22h-4.4v-4.4Zm4.4 0H22V22h-4.4v-4.4Zm8.8 0h4.4V22h-4.4v-4.4Zm13.2 0H44V22h-4.4v-4.4Zm17.6 0h4.4V22h-4.4v-4.4Zm4.4 0H66V22h-4.4v-4.4Zm17.6 0h4.4V22h-4.4v-4.4Zm8.8 0h4.4V22H88v-4.4Zm4.4 0h4.4V22h-4.4v-4.4Zm4.4 0h4.4V22h-4.4v-4.4Zm8.8 0h4.4V22h-4.4v-4.4ZM0 22h4.4v4.4H0V22Zm26.4 0h4.4v4.4h-4.4V22Zm8.8 0h4.4v4.4h-4.4V22Zm4.4 0H44v4.4h-4.4V22Zm8.8 0h4.4v4.4h-4.4V22Zm4.4 0h4.4v4.4h-4.4V22ZM66 22h4.4v4.4H66V22Zm4.4 0h4.4v4.4h-4.4V22Zm8.8 0h4.4v4.4h-4.4V22Zm26.4 0h4.4v4.4h-4.4V22ZM0 26.4h4.4v4.4H0v-4.4Zm4.4 0h4.4v4.4H4.4v-4.4Zm4.4 0h4.4v4.4H8.8v-4.4Zm4.4 0h4.4v4.4h-4.4v-4.4Zm4.4 0H22v4.4h-4.4v-4.4Zm4.4 0h4.4v4.4H22v-4.4Zm4.4 0h4.4v4.4h-4.4v-4.4Zm8.8 0h4.4v4.4h-4.4v-4.4Zm8.8 0h4.4v4.4H44v-4.4Zm8.8 0h4.4v4.4h-4.4v-4.4Zm8.8 0H66v4.4h-4.4v-4.4Zm8.8 0h4.4v4.4h-4.4v-4.4Zm8.8 0h4.4v4.4h-4.4v-4.4Zm4.4 0H88v4.4h-4.4v-4.4Zm4.4 0h4.4v4.4H88v-4.4Zm4.4 0h4.4v4.4h-4.4v-4.4Zm4.4 0h4.4v4.4h-4.4v-4.4Zm4.4 0h4.4v4.4h-4.4v-4.4Zm4.4 0h4.4v4.4h-4.4v-4.4Zm-66 4.4H44v4.4h-4.4v-4.4Zm4.4 0h4.4v4.4H44v-4.4Zm4.4 0h4.4v4.4h-4.4v-4.4Zm13.2 0H66v4.4h-4.4v-4.4Zm4.4 0h4.4v4.4H66v-4.4Zm4.4 0h4.4v4.4h-4.4v-4.4ZM0 35.2h4.4v4.4H0v-4.4Zm4.4 0h4.4v4.4H4.4v-4.4Zm4.4 0h4.4v4.4H8.8v-4.4Zm4.4 0h4.4v4.4h-4.4v-4.4Zm4.4 0H22v4.4h-4.4v-4.4Zm8.8 0h4.4v4.4h-4.4v-4.4Zm4.4 0h4.4v4.4h-4.4v-4.4Zm4.4 0h4.4v4.4h-4.4v-4.4Zm4.4 0H44v4.4h-4.4v-4.4Zm8.8 0h4.4v4.4h-4.4v-4.4Zm17.6 0h4.4v4.4H66v-4.4Zm4.4 0h4.4v4.4h-4.4v-4.4Zm4.4 0h4.4v4.4h-4.4v-4.4Zm8.8 0H88v4.4h-4.4v-4.4Zm8.8 0h4.4v4.4h-4.4v-4.4Zm8.8 0h4.4v4.4h-4.4v-4.4ZM4.4 39.6h4.4V44H4.4v-4.4Zm4.4 0h4.4V44H8.8v-4.4Zm4.4 0h4.4V44h-4.4v-4.4Zm4.4 0H22V44h-4.4v-4.4Zm26.4 0h4.4V44H44v-4.4Zm8.8 0h4.4V44h-4.4v-4.4Zm4.4 0h4.4V44h-4.4v-4.4Zm13.2 0h4.4V44h-4.4v-4.4Zm13.2 0H88V44h-4.4v-4.4Zm17.6 0h4.4V44h-4.4v-4.4ZM0 44h4.4v4.4H0V44Zm8.8 0h4.4v4.4H8.8V44Zm4.4 0h4.4v4.4h-4.4V44Zm13.2 0h4.4v4.4h-4.4V44Zm8.8 0h4.4v4.4h-4.4V44Zm8.8 0h4.4v4.4H44V44Zm13.2 0h4.4v4.4h-4.4V44Zm4.4 0H66v4.4h-4.4V44Zm4.4 0h4.4v4.4H66V44Zm8.8 0h4.4v4.4h-4.4V44Zm4.4 0h4.4v4.4h-4.4V44Zm13.2 0h4.4v4.4h-4.4V44Zm8.8 0h4.4v4.4h-4.4V44Zm4.4 0h4.4v4.4h-4.4V44ZM4.4 48.4h4.4v4.4H4.4v-4.4Zm4.4 0h4.4v4.4H8.8v-4.4Zm4.4 0h4.4v4.4h-4.4v-4.4Zm8.8 0h4.4v4.4H22v-4.4Zm8.8 0h4.4v4.4h-4.4v-4.4Zm4.4 0h4.4v4.4h-4.4v-4.4Zm17.6 0h4.4v4.4h-4.4v-4.4Zm4.4 0h4.4v4.4h-4.4v-4.4Zm17.6 0h4.4v4.4h-4.4v-4.4Zm4.4 0h4.4v4.4h-4.4v-4.4Zm4.4 0H88v4.4h-4.4v-4.4Zm22 0h4.4v4.4h-4.4v-4.4ZM0 52.8h4.4v4.4H0v-4.4Zm22 0h4.4v4.4H22v-4.4Zm4.4 0h4.4v4.4h-4.4v-4.4Zm8.8 0h4.4v4.4h-4.4v-4.4Zm4.4 0H44v4.4h-4.4v-4.4Zm4.4 0h4.4v4.4H44v-4.4Zm8.8 0h4.4v4.4h-4.4v-4.4Zm8.8 0H66v4.4h-4.4v-4.4Zm4.4 0h4.4v4.4H66v-4.4Zm4.4 0h4.4v4.4h-4.4v-4.4Zm4.4 0h4.4v4.4h-4.4v-4.4Zm4.4 0h4.4v4.4h-4.4v-4.4Zm4.4 0H88v4.4h-4.4v-4.4Zm4.4 0h4.4v4.4H88v-4.4Zm8.8 0h4.4v4.4h-4.4v-4.4Zm4.4 0h4.4v4.4h-4.4v-4.4Zm4.4 0h4.4v4.4h-4.4v-4.4ZM0 57.2h4.4v4.4H0v-4.4Zm4.4 0h4.4v4.4H4.4v-4.4Zm4.4 0h4.4v4.4H8.8v-4.4Zm4.4 0h4.4v4.4h-4.4v-4.4Zm4.4 0H22v4.4h-4.4v-4.4Zm13.2 0h4.4v4.4h-4.4v-4.4Zm4.4 0h4.4v4.4h-4.4v-4.4Zm4.4 0H44v4.4h-4.4v-4.4Zm30.8 0h4.4v4.4h-4.4v-4.4Zm13.2 0H88v4.4h-4.4v-4.4Zm8.8 0h4.4v4.4h-4.4v-4.4Zm8.8 0h4.4v4.4h-4.4v-4.4ZM0 61.6h4.4V66H0v-4.4Zm26.4 0h4.4V66h-4.4v-4.4Zm4.4 0h4.4V66h-4.4v-4.4Zm17.6 0h4.4V66h-4.4v-4.4Zm4.4 0h4.4V66h-4.4v-4.4Zm13.2 0h4.4V66H66v-4.4Zm8.8 0h4.4V66h-4.4v-4.4Zm8.8 0H88V66h-4.4v-4.4Zm4.4 0h4.4V66H88v-4.4Zm4.4 0h4.4V66h-4.4v-4.4Zm8.8 0h4.4V66h-4.4v-4.4Zm4.4 0h4.4V66h-4.4v-4.4ZM0 66h4.4v4.4H0V66Zm8.8 0h4.4v4.4H8.8V66Zm4.4 0h4.4v4.4h-4.4V66Zm8.8 0h4.4v4.4H22V66Zm22 0h4.4v4.4H44V66Zm4.4 0h4.4v4.4h-4.4V66Zm13.2 0H66v4.4h-4.4V66Zm8.8 0h4.4v4.4h-4.4V66Zm8.8 0h4.4v4.4h-4.4V66Zm4.4 0H88v4.4h-4.4V66Zm4.4 0h4.4v4.4H88V66Zm17.6 0h4.4v4.4h-4.4V66ZM0 70.4h4.4v4.4H0v-4.4Zm8.8 0h4.4v4.4H8.8v-4.4Zm17.6 0h4.4v4.4h-4.4v-4.4Zm17.6 0h4.4v4.4H44v-4.4Zm4.4 0h4.4v4.4h-4.4v-4.4Zm22 0h4.4v4.4h-4.4v-4.4Zm4.4 0h4.4v4.4h-4.4v-4.4Zm4.4 0h4.4v4.4h-4.4v-4.4Zm4.4 0H88v4.4h-4.4v-4.4Zm4.4 0h4.4v4.4H88v-4.4Zm8.8 0h4.4v4.4h-4.4v-4.4Zm-61.6 4.4h4.4v4.4h-4.4v-4.4Zm8.8 0h4.4v4.4H44v-4.4Zm8.8 0h4.4v4.4h-4.4v-4.4Zm4.4 0h4.4v4.4h-4.4v-4.4Zm4.4 0H66v4.4h-4.4v-4.4Zm4.4 0h4.4v4.4H66v-4.4Zm4.4 0h4.4v4.4h-4.4v-4.4Zm17.6 0h4.4v4.4H88v-4.4Zm4.4 0h4.4v4.4h-4.4v-4.4ZM0 79.2h4.4v4.4H0v-4.4Zm4.4 0h4.4v4.4H4.4v-4.4Zm4.4 0h4.4v4.4H8.8v-4.4Zm4.4 0h4.4v4.4h-4.4v-4.4Zm4.4 0H22v4.4h-4.4v-4.4Zm4.4 0h4.4v4.4H22v-4.4Zm4.4 0h4.4v4.4h-4.4v-4.4Zm8.8 0h4.4v4.4h-4.4v-4.4Zm4.4 0H44v4.4h-4.4v-4.4Zm4.4 0h4.4v4.4H44v-4.4Zm13.2 0h4.4v4.4h-4.4v-4.4Zm4.4 0H66v4.4h-4.4v-4.4Zm8.8 0h4.4v4.4h-4.4v-4.4Zm8.8 0h4.4v4.4h-4.4v-4.4Zm8.8 0h4.4v4.4H88v-4.4Zm8.8 0h4.4v4.4h-4.4v-4.4Zm4.4 0h4.4v4.4h-4.4v-4.4Zm4.4 0h4.4v4.4h-4.4v-4.4ZM0 83.6h4.4V88H0v-4.4Zm26.4 0h4.4V88h-4.4v-4.4Zm13.2 0H44V88h-4.4v-4.4Zm4.4 0h4.4V88H44v-4.4Zm8.8 0h4.4V88h-4.4v-4.4Zm4.4 0h4.4V88h-4.4v-4.4Zm8.8 0h4.4V88H66v-4.4Zm4.4 0h4.4V88h-4.4v-4.4Zm17.6 0h4.4V88H88v-4.4Zm4.4 0h4.4V88h-4.4v-4.4Zm8.8 0h4.4V88h-4.4v-4.4ZM0 88h4.4v4.4H0V88Zm8.8 0h4.4v4.4H8.8V88Zm4.4 0h4.4v4.4h-4.4V88Zm4.4 0H22v4.4h-4.4V88Zm8.8 0h4.4v4.4h-4.4V88Zm8.8 0h4.4v4.4h-4.4V88Zm4.4 0H44v4.4h-4.4V88Zm13.2 0h4.4v4.4h-4.4V88Zm8.8 0H66v4.4h-4.4V88Zm4.4 0h4.4v4.4H66V88Zm4.4 0h4.4v4.4h-4.4V88Zm4.4 0h4.4v4.4h-4.4V88Zm4.4 0h4.4v4.4h-4.4V88Zm4.4 0H88v4.4h-4.4V88Zm4.4 0h4.4v4.4H88V88Zm8.8 0h4.4v4.4h-4.4V88Zm8.8 0h4.4v4.4h-4.4V88ZM0 92.4h4.4v4.4H0v-4.4Zm8.8 0h4.4v4.4H8.8v-4.4Zm4.4 0h4.4v4.4h-4.4v-4.4Zm4.4 0H22v4.4h-4.4v-4.4Zm8.8 0h4.4v4.4h-4.4v-4.4Zm8.8 0h4.4v4.4h-4.4v-4.4Zm8.8 0h4.4v4.4H44v-4.4Zm22 0h4.4v4.4H66v-4.4Zm4.4 0h4.4v4.4h-4.4v-4.4Zm4.4 0h4.4v4.4h-4.4v-4.4Zm4.4 0h4.4v4.4h-4.4v-4.4Zm8.8 0h4.4v4.4H88v-4.4Zm4.4 0h4.4v4.4h-4.4v-4.4Zm4.4 0h4.4v4.4h-4.4v-4.4Zm4.4 0h4.4v4.4h-4.4v-4.4Zm4.4 0h4.4v4.4h-4.4v-4.4ZM0 96.8h4.4v4.4H0v-4.4Zm8.8 0h4.4v4.4H8.8v-4.4Zm4.4 0h4.4v4.4h-4.4v-4.4Zm4.4 0H22v4.4h-4.4v-4.4Zm8.8 0h4.4v4.4h-4.4v-4.4Zm8.8 0h4.4v4.4h-4.4v-4.4Zm4.4 0H44v4.4h-4.4v-4.4Zm8.8 0h4.4v4.4h-4.4v-4.4Zm4.4 0h4.4v4.4h-4.4v-4.4Zm13.2 0h4.4v4.4H66v-4.4Zm26.4 0h4.4v4.4h-4.4v-4.4Zm4.4 0h4.4v4.4h-4.4v-4.4Zm8.8 0h4.4v4.4h-4.4v-4.4ZM0 101.2h4.4v4.4H0v-4.4Zm26.4 0h4.4v4.4h-4.4v-4.4Zm8.8 0h4.4v4.4h-4.4v-4.4Zm8.8 0h4.4v4.4H44v-4.4Zm4.4 0h4.4v4.4h-4.4v-4.4Zm13.2 0H66v4.4h-4.4v-4.4Zm8.8 0h4.4v4.4h-4.4v-4.4Zm4.4 0h4.4v4.4h-4.4v-4.4Zm4.4 0h4.4v4.4h-4.4v-4.4Zm4.4 0H88v4.4h-4.4v-4.4Zm4.4 0h4.4v4.4H88v-4.4Zm4.4 0h4.4v4.4h-4.4v-4.4Zm13.2 0h4.4v4.4h-4.4v-4.4ZM0 105.6h4.4v4.4H0v-4.4Zm4.4 0h4.4v4.4H4.4v-4.4Zm4.4 0h4.4v4.4H8.8v-4.4Zm4.4 0h4.4v4.4h-4.4v-4.4Zm4.4 0H22v4.4h-4.4v-4.4Zm4.4 0h4.4v4.4H22v-4.4Zm4.4 0h4.4v4.4h-4.4v-4.4Zm8.8 0h4.4v4.4h-4.4v-4.4Zm8.8 0h4.4v4.4H44v-4.4Zm4.4 0h4.4v4.4h-4.4v-4.4Zm17.6 0h4.4v4.4H66v-4.4Zm8.8 0h4.4v4.4h-4.4v-4.4Zm4.4 0h4.4v4.4h-4.4v-4.4Zm4.4 0H88v4.4h-4.4v-4.4Zm4.4 0h4.4v4.4H88v-4.4Zm4.4 0h4.4v4.4h-4.4v-4.4Zm4.4 0h4.4v4.4h-4.4v-4.4Zm4.4 0h4.4v4.4h-4.4v-4.4Zm4.4 0h4.4v4.4h-4.4v-4.4Z" fill="#1F2229"/></g><defs><clipPath id="clip0_184_1385"><path fill="#fff" d="M0 0h110v110H0z"/></clipPath></defs></svg>