<svg xmlns="http://www.w3.org/2000/svg"><defs><font id="tele2_textsans_web_shortRg" horiz-adv-x="1044"><font-face units-per-em="2048" ascent="1638" descent="-410"/><glyph horiz-adv-x="0"/><glyph horiz-adv-x="0"/><glyph horiz-adv-x="479"/><glyph horiz-adv-x="479"/><glyph horiz-adv-x="479"/><glyph horiz-adv-x="479"/><glyph unicode="!" horiz-adv-x="542" d="M133 115q0 57 40 97t99 40q55 0 96.5-40t41.5-97q0-59-41.5-99.5T272-25q-59 0-99 40t-40 100zm12 1421h248L344 451H193z"/><glyph unicode="&quot;" horiz-adv-x="833" d="M143 1536h224l-21-483H162zm324 0h223l-20-483H485z"/><glyph unicode="#" horiz-adv-x="1478" d="m68 428 43 172h239l78 289H188l43 172h242l127 475h195l-127-475h303l127 475h192l-127-475h242l-43-172h-244l-78-289h246l-43-172H995L881 0H688l115 428H500L385 0H190l115 428H68zm477 172h303l78 289H623z"/><glyph unicode="$" d="M76 72v213q98-66 196.5-93.5T457 160v526l-13 6q-76 35-141 75t-112.5 92-75 122T88 1149q0 96 29.5 165.5t81 118 118 76T457 1548v158h155v-150q88-4 167-17t124-38v-196q-53 33-129 50t-162 21V846q72-35 136.5-74T862 682t78-118.5T969 401q0-76-20.5-144.5T885 133 774.5 40 612-12v-168H457v160q-82 4-185.5 21T76 72zm229 1077q0-84 43-134t109-89v432q-63-20-107.5-68.5T305 1149zm307-973q63 20 101.5 71.5T752 397q0 78-38 127t-102 86V176z"/><glyph unicode="%" horiz-adv-x="1759" d="M84 1184q0 86 28.5 153.5t78 115.5 117 72.5T453 1550q76 0 143.5-24.5T714 1454t78.5-114.5T821 1186t-28.5-153.5-78.5-114-117.5-71T453 823q-78 0-145.5 23.5t-117 70-78 114T84 1184zm190 0q0-104 52.5-154.5T453 979t126 49 52 158q0 106-53.5 156.5T453 1393q-74 0-126.5-51.5T274 1184zM279 0l972 1536h215L492 0H279zm659 342q0 86 28.5 153.5t78 115.5 117 73 145.5 25 145.5-25 116.5-72 77.5-114.5T1675 344q0-84-28.5-152.5T1569 77 1452.5 6.5 1307-18 1161.5 6.5t-117 70.5-78 113.5T938 342zm190 0q0-102 52.5-152.5T1307 139q72 0 125 49.5t53 155.5-53.5 156.5T1307 551q-74 0-126.5-51T1128 342z"/><glyph unicode="&amp;" horiz-adv-x="1402" d="M92 375q0 74 22.5 134T176 618.5t90 90.5 109 77q-72 90-118 182.5T211 1178q0 80 23.5 149.5T306 1447t123 79.5 177 29.5 176-26.5 121-71.5 68.5-105.5T993 1223q0-74-23.5-133.5T902 976 795.5 871.5 653 770l27-29q160-170 342-329 33 68 53.5 149.5T1100 741h180q-10-129-39-241.5T1159 295q47-41 96.5-80t100.5-80L1247-20q-51 39-102 79.5T1042 143Q960 65 849.5 22.5T594-20Q363-20 227.5 81T92 375zm211 16q0-117 81-180.5T606 147q178 0 301 111-113 98-218 198.5T492 655l-9 9q-78-51-129-115t-51-158zm115 797q0-80 34.5-151.5T547 893q121 84 180 155.5t59 165.5q0 86-53 131.5T604 1391q-78 0-132-48.5T418 1188z"/><glyph unicode="'" horiz-adv-x="509" d="M143 1536h224l-21-483H162z"/><glyph unicode="(" horiz-adv-x="720" d="M82 621q0 266 59.5 463.5T292 1418t200.5 214T700 1737v-158q-74-29-147.5-99.5t-132-189.5-95-284.5T289 621t36.5-384 95-282T553-232.5 700-332v-157q-98 27-207.5 103.5T292-174 141.5 157.5 82 621z"/><glyph unicode=")" horiz-adv-x="720" d="M20-332q74 29 148 99.5T300-45t95 284 37 386q0 217-37 383t-95 283.5-132 188T20 1579v158q98-27 208-104t201-213 150.5-332.5T639 625q0-268-59.5-466T429-174 228.5-386 20-489v157z"/><glyph unicode="*" horiz-adv-x="882" d="m88 1096 248 98-244 94 84 148 207-144-35 264h195l-33-266 203 146 80-148-242-96 244-96-82-152-203 146 33-265H346l37 265-213-146z"/><glyph unicode="+" horiz-adv-x="1097" d="M123 645v162h344v360h166V807h342V645H633V268H467v377H123z"/><glyph unicode="," horiz-adv-x="522" d="M123 115q0 57 40 97t99 40q43 0 74-18.5t46-50 16-72.5-15-86L276-274H154l79 254q-53 8-81.5 44.5T123 115z"/><glyph unicode="-" horiz-adv-x="778" d="M88 516v150h602V516H88z"/><glyph unicode="." horiz-adv-x="522" d="M123 115q0 57 40 97t99 40q55 0 96-40t41-97q0-59-41-99.5T262-25q-59 0-99 40t-40 100z"/><glyph unicode="/" horiz-adv-x="964" d="m41-492 696 2182h187L227-492H41z"/><glyph unicode="0" horiz-adv-x="1193" d="M86 764q0 401 128 596.5T596 1556t383-194.5T1108 766 980 172.5 596-20 213 171 86 764zm217 0q0-135 14.5-244.5t49-188.5 90-122T596 166q82 0 139.5 43t91 122 49 189.5T891 766t-15.5 245.5-49 190.5-91 124-139.5 44q-84 0-139.5-44t-90-124-49-191.5T303 764z"/><glyph unicode="1" horiz-adv-x="716" d="M35 1194v188l401 168h105V0H334v1319z"/><glyph unicode="2" horiz-adv-x="1026" d="M68 0v166l440 553q92 117 143.5 219t51.5 207q0 231-232 231-86 0-172-25.5T127 1253v197q33 27 78 47.5t96 33.5 104.5 19 102.5 6q209 0 310.5-104T920 1159q0-74-18.5-139.5t-52.5-130-81-131T662 618L313 186h664V0H68z"/><glyph unicode="3" horiz-adv-x="1017" d="M74 55v197q82-47 159.5-69.5T420 160q141 0 221 77.5T721 455q0 131-74.5 205.5T430 735q-29 0-74-3t-90-15v178q109 12 184.5 36.5t124 61.5 71 82 22.5 96q0 96-57.5 150.5T449 1376q-100 0-188.5-29.5T107 1247v197q63 57 163.5 84.5T469 1556q111 0 188.5-27.5t128-73.5 74-107.5T883 1217q0-78-25.5-138.5T790 974t-96.5-73T582 858v-10q174-20 265-126t91-265q0-96-25.5-182.5t-86-152-158-104T430-20q-98 0-191 19T74 55z"/><glyph unicode="4" horiz-adv-x="1114" d="M16 377v137l664 1036h194V543h193V377H874V-20H667v397H16zm207 166h444v669h-12z"/><glyph unicode="5" horiz-adv-x="1032" d="M57 55v197q82-47 172-69.5T405 160q176 0 258 85t82 236q0 147-98 222t-272 75q-45 0-88-4t-78-8q-39-6-76-12l55 782h709v-186H364l-30-400q27 2 54.5 3t49.5 1q127 0 224.5-33.5t164-95 101-149.5T962 481q0-102-31.5-192t-98-160-169-109.5T422-20q-88 0-190.5 18T57 55z"/><glyph unicode="6" horiz-adv-x="1193" d="M92 643q0 254 47 428t135 281.5T485 1508t275 48q72 0 135-9t119-31v-187q-51 25-112.5 36T784 1376q-475 0-493-545h20q39 70 120 124.5t216 54.5q106 0 190.5-37T980 868.5t90-162 32-208.5q0-117-35-213.5t-99.5-164T809 16.5 596-20q-117 0-211 36.5T226.5 133 127 339 92 643zm217-147q-2-164 76-253t213-89q125 0 206 89t81 255q0 82-22.5 145.5T802 750t-90.5 65.5T598 838q-131 0-210-89.5T309 496z"/><glyph unicode="7" horiz-adv-x="966" d="M57 1350v186h901v-145L604 606q-55-119-88-210t-51.5-162.5-25.5-128T430 0H223q2 55 12.5 115.5t32 135.5 56 168T414 633l323 717H57z"/><glyph unicode="8" horiz-adv-x="1185" d="M80 428q0 137 73.5 241.5T371 821v17q-59 18-103.5 52t-72 77-41 94-13.5 104q0 82 30 154t87 124 141 82.5 195 30.5 194.5-30.5 141-82.5 86-123 28.5-153q0-109-55-201T815 838v-17q143-47 217-150.5t74-240.5q0-211-133-330.5T594-20q-121 0-216 30.5t-161.5 89T115 241 80 428zm217 10q0-133 78-213t219-80 218 80 77 213q0 141-77 219t-218 78-219-77.5T297 438zm61 705q0-121 63.5-179.5T594 905q106 0 169.5 58.5T827 1143q0 117-63.5 182.5T594 1391q-111 0-173.5-65.5T358 1143z"/><glyph unicode="9" horiz-adv-x="1193" d="M92 1038q0 117 35 213.5t101.5 164 159.5 104 210 36.5q125 0 219-38.5T974.5 1394t95.5-218.5 32-321.5q0-264-41-434T943 151.5t-186.5-135T510-20q-29 0-70 3T355-7t-91 19.5T176 45v203q86-51 172-69.5T522 160q111 0 182.5 41T819 315.5t62.5 175T907 713h-20q-47-92-124-139.5T559 526q-223 0-345 137.5T92 1038zm217 0q0-164 80-252t209-88q137 0 212 89.5t77 252.5q0 166-74 254t-215 88q-133 0-211-89t-78-255z"/><glyph unicode=":" horiz-adv-x="522" d="M123 115q0 57 40 97t99 40q55 0 96-40t41-97q0-59-41-99.5T262-25q-59 0-99 40t-40 100zm0 688q0 57 40 97t99 40q55 0 96-40t41-97q0-59-41-99.5T262 663q-59 0-99 40t-40 100z"/><glyph unicode=";" horiz-adv-x="526" d="M123 115q0 57 40 97t99 40q43 0 74-18.5t46-50 16-72.5-15-86L276-274H154l79 254q-53 8-81.5 44.5T123 115zm0 688q0 57 40 97t99 40q55 0 96-40t41-97q0-59-41-99.5T262 663q-59 0-99 40t-40 100z"/><glyph unicode="&lt;" horiz-adv-x="954" d="M61 655v111l768 440v-188L301 715l530-305V215z"/><glyph unicode="=" horiz-adv-x="1056" d="M123 451v163h811V451H123zm0 387v163h811V838H123z"/><glyph unicode="&gt;" horiz-adv-x="954" d="M123 215v193l528 303-526 303v192l768-440V655z"/><glyph unicode="?" horiz-adv-x="985" d="M115 1251v199q33 27 77 47.5t93 33.5 101 19 103 6q207 0 311.5-89T905 1212q0-92-31.5-159.5t-80-118.5T689 845t-104-72-80-66.5-32-71.5q0-47 38-73.5T625 537V389q-78 0-143.5 12.5t-112.5 39-75 69.5-28 106q0 68 32 119t78 92 101 77 101.5 75 78 86 31.5 111q0 198-227 198-98 0-181-26.5T115 1251zM328 115q0 57 40 97t99 40q55 0 96-40t41-97q0-59-41-99.5T467-25q-59 0-99 40t-40 100z"/><glyph unicode="@" horiz-adv-x="2027" d="M92 473q0 268 81 454.5T388 1230t304 168 348 52q190 0 354.5-51t284-160 188-278.5T1935 551q0-266-103-418.5T1534-20q-78 0-129 15t-84 40.5-51.5 57.5-32.5 63h-14q-47-80-114-128T924-20Q731-20 634 99.5T537 473q0 244 106.5 370T936 969q113 0 181.5-44t99.5-122h14v145h186V354q0-66 11.5-104.5t30-61 43-29.5 50.5-7q55 0 90 32.5t53.5 86 26 121T1729 530q0 217-59.5 359.5t-157 225.5-220.5 116-252 33q-125 0-257-35t-239.5-124-176-242.5T299 473q0-178 41-303T447.5-38 596-168t165-70.5T917.5-268t122.5-6q43 0 93.5 5t101.5 15 99 25.5 83 38.5v-189q-33-18-77-33.5t-94-27-103-16.5-103-5q-90 0-194.5 11.5t-210 46-203.5 98-174 167-121 253T92 473zm651 0q0-166 66.5-241.5T997 156q98 0 161 62.5t63 217.5v105q0 113-54.5 182.5T999 793q-121 0-188.5-77T743 473z"/><glyph unicode="A" horiz-adv-x="1236" d="m20 0 492 1536h193L1217 0h-211L883 383H322L203 0H20zm357 561h446l-217 674h-18z"/><glyph unicode="B" horiz-adv-x="1206" d="M162 0v1536h420q131 0 225-27.5t155.5-78 90-121T1081 1153q0-133-67.5-214T827 817v-16q164-37 238-136.5t74-234.5q0-90-28-168t-89-136-162.5-92T610 0H162zm207 174h223q154 0 242 60.5T922 432q0 74-26 126t-72 84-108.5 47.5T578 705H369V174zm0 698h198q141 0 219 70t78 197q0 117-77.5 170T567 1362H369V872z"/><glyph unicode="C" horiz-adv-x="1167" d="M86 768q0 180 45 326.5t131 249T472 1501t282 55q37 0 77.5-3t80.5-9 76-15 63-22v-188q-102 57-283 57-96 0-181-38t-148.5-113.5-99.5-189T303 768q0-313 124-460.5T770 160q29 0 66.5 2t79.5 11 85 26.5 84 48.5V55Q1007 8 917.5-6T750-20q-172 0-297 55T247 192.5t-121 248T86 768z"/><glyph unicode="D" horiz-adv-x="1325" d="M162 0v1536h317q367 0 563.5-195.5T1239 770t-197.5-572.5T479 0H162zm207 182h110q252 0 397.5 146.5T1022 770q0 297-145.5 440.5T479 1354H369V182z"/><glyph unicode="E" horiz-adv-x="1089" d="M162 0v1536h831v-182H369V881h510V698H369V182h651V0H162z"/><glyph unicode="F" horiz-adv-x="993" d="M162 0v1536h790v-182H369V870h475V688H369V0H162z"/><glyph unicode="G" horiz-adv-x="1263" d="M86 768q0 188 51 335.5t143.5 248T503 1504t288 52q35 0 79.5-3t90-9 86-15 65.5-22v-186q-53 27-134 41t-173 14q-111 0-203-42t-158.5-120.5T340 1022t-37-254 29.5-254 90-191.5 152-120.5T786 160q29 0 72 2t90 10v426H666v174h485V35q-37-16-83-27.5T972-10t-100.5-8-95.5-2q-170 0-299 53T261 187.5t-131 248T86 768z"/><glyph unicode="H" horiz-adv-x="1384" d="M162 0v1536h207V877h647v659h207V0h-207v694H369V0H162z"/><glyph unicode="I" horiz-adv-x="530" d="M162 0v1536h207V0H162z"/><glyph unicode="J" horiz-adv-x="770" d="M16 27v196q51-37 107.5-48t97.5-11q115 0 158 74.5T422 477v1059h207V485q0-115-18.5-208T549 117.5t-112.5-102T262-20q-74 0-140.5 12T16 27z"/><glyph unicode="K" horiz-adv-x="1280" d="M162 0v1536h207V700l585 836h224L674 805 1266 0H995L522 633 369 418V0H162z"/><glyph unicode="L" horiz-adv-x="997" d="M162 0v1536h207V182h606V0H162z"/><glyph unicode="M" horiz-adv-x="1671" d="M162 0v1536h272L836 313h10l399 1223h264V0h-206v1227h-13L897 0H743L350 1227h-12V0H162z"/><glyph unicode="N" horiz-adv-x="1396" d="M162 0v1536h213l663-1159h11v1159h186V0h-209L358 1161h-14V0H162z"/><glyph unicode="O" horiz-adv-x="1409" d="M86 768q0 184 42 330.5t122 248T444.5 1502t260.5 54q147 0 262.5-54t194.5-155.5 121-247 42-329.5-42-330.5-122-249T966.5 34 705-20q-145 0-260 54T250 190.5t-122 249T86 768zm217 0q0-299 108-453.5T705 160q188 0 295.5 155.5T1108 770q0 297-107.5 451.5T705 1376q-186 0-294-154.5T303 768z"/><glyph unicode="P" horiz-adv-x="1122" d="M162 0v1536h395q143 0 242.5-39t161-103.5 89-146.5 27.5-166q0-90-27.5-175t-90-150.5-162-106.5T557 608H369V0H162zm207 793h178q141 0 227 71.5t86 218.5q0 131-86 201t-227 70H369V793z"/><glyph unicode="Q" horiz-adv-x="1409" d="M86 768q0 184 42 330.5t122 248T444.5 1502t260.5 54q147 0 262.5-54t194.5-155.5 121-247 42-329.5-42-330.5-122-249T966.5 34 705-20q-145 0-260 54T250 190.5t-122 249T86 768zm217 0q0-299 108-453.5T705 160q188 0 295.5 155.5T1108 770q0 297-107.5 451.5T705 1376q-186 0-294-154.5T303 768zM532-98l676-41v-174l-676 41v174z"/><glyph unicode="R" horiz-adv-x="1253" d="M162 0v1536h381q150 0 253-38t166.5-101.5 91-145.5 27.5-170q0-66-17-130t-54-120.5T915.5 729 778 657L1214 0H956L565 608q-16-2-30.5-2H369V0H162zm207 791h178q143 0 230 68.5t87 215.5q0 141-87 210t-230 69H369V791z"/><glyph unicode="S" d="M76 72v213q104-70 210.5-97.5T485 160q55 0 104.5 10t85.5 38 56.5 73T752 397q0 61-25 104.5t-67 76-97 59.5-119 55q-76 35-141 75t-112.5 92-75 122T88 1149q0 117 43 194.5t112.5 125T401 1536t179 20q96 0 185-13t138-42v-196q-55 35-138 53t-177 18q-49 0-99.5-10t-91.5-35.5-66.5-69.5-25.5-112q0-59 22.5-101t59.5-74 86-58.5T575 864q78-37 150-76.5t126-92 86-123T969 401q0-86-27-162.5t-83-134-146-91T496-20q-41 0-92.5 3T296-4 183.5 24.5 76 72z"/><glyph unicode="T" horiz-adv-x="1140" d="M41 1354v182h1059v-182H674V0H467v1354H41z"/><glyph unicode="U" horiz-adv-x="1345" d="M158 557v979h207V567q0-94 16-169.5t54-128 98.5-80T682 162q92 0 151.5 27.5t95.5 81 49 128T991 569v967h197V559q0-123-25.5-228.5t-84-183T921.5 25 680-20 437.5 21.5 275.5 140t-90 182.5T158 557z"/><glyph unicode="V" horiz-adv-x="1216" d="M20 1536h216L631 328h18l361 1208h186L723 0H539z"/><glyph unicode="W" horiz-adv-x="1777" d="M27 1536h209L524 410h15l282 1126h158l287-1126h18l281 1126h186L1354 0h-174L889 1120h-19L592 0H426z"/><glyph unicode="X" horiz-adv-x="1280" d="m45 0 469 799-446 737h233l334-547 319 547h207L741 817 1235 0h-234L618 629 250 0H45z"/><glyph unicode="Y" horiz-adv-x="1181" d="M14 1536h234l370-694h11l344 694h194L713 623V0H506v623z"/><glyph unicode="Z" horiz-adv-x="1058" d="M55 0v139l695 1215H80v182h909v-139L293 182h711V0H55z"/><glyph unicode="[" horiz-adv-x="657" d="M164-471v2202h473v-158H371V-313h266v-158H164z"/><glyph unicode="\" horiz-adv-x="968" d="M41 1690h190L928-492H737z"/><glyph unicode="]" horiz-adv-x="657" d="M20-313h267v1886H20v158h474V-471H20v158z"/><glyph unicode="^" horiz-adv-x="1009" d="m47 772 406 766h108l402-768H776l-272 512-271-510H47z"/><glyph unicode="_" d="M0-82h1044v-151H0v151z"/><glyph unicode="`" horiz-adv-x="684" d="M98 1481h297l123-299H348z"/><glyph unicode="a" horiz-adv-x="1062" d="M96 270q0 88 35 153.5T242.5 530 440 591.5 733 612v47q0 111-63.5 167.5T483 883q-86 0-165.5-20.5T160 791v184q72 43 168 59.5t182 16.5q217 0 318.5-103.5T930 657V0H743v162h-14Q680 76 608.5 28T408-20q-156 0-234 81.5T96 270zm207 23q0-66 40-109t138-43q47 0 92 17.5t81 53.5 57.5 90T733 430v55q-119 0-200.5-10t-133-32.5-74-59.5-22.5-90z"/><glyph unicode="b" horiz-adv-x="1177" d="M145 0v1536h197v-492l-10-159h14q47 72 128 119t198 47q94 0 173-38t136-106.5 89-167 32-221.5q0-127-32-227.5t-89-170-137-105T670-20q-221 0-324 163h-14V0H145zm197 455q0-76 21.5-132.5T422 228t87-57 105-19 106.5 20.5T811 238t61.5 113.5T895 518q0 94-22.5 163T811 794t-90 64.5T614 879q-121 0-196.5-70T342 598V455z"/><glyph unicode="c" horiz-adv-x="915" d="M76 512q0 127 38 227.5t103.5 169T374 1014t197 37q90 0 150.5-13.5T829 999V809q-53 39-118.5 52T590 874q-66 0-122-21.5T371 786t-64.5-113.5T283 512q0-94 23.5-161.5T371 240t99-63.5T600 156q158 0 244 73V35q-33-18-97.5-36.5T578-20q-240 0-371 138T76 512z"/><glyph unicode="d" horiz-adv-x="1177" d="M76 510q0 125 31.5 224.5t90 170T338 1013t182 38q106 0 185-37t126-127h15l-10 157v492h196V0H846v143h-15Q788 65 704.5 22.5T506-20q-199 0-314.5 139T76 510zm207 0q0-94 22.5-161.5T367 237t91-64.5T569 152q51 0 99.5 17t85.5 53 59.5 93.5T836 453v141q0 135-74 210t-191 75q-59 0-112-21.5T367 792t-61.5-114T283 510z"/><glyph unicode="e" d="M76 512q0 127 34.5 227.5t96 169T354 1014t191 37q90 0 168-26t134-78 89-132 33-186q0-41-4-76t-9-51H289v-8q0-170 84-255 86-87 239-87 92 0 174 22.5T934 250V68Q883 27 792 3.5T588-20q-240 0-376 131T76 512zm211 125h485q-4 72-24.5 121t-53 78.5-73.5 43-86 13.5q-98 0-164-61.5T287 637z"/><glyph unicode="f" horiz-adv-x="653" d="M39 860v170h143v133q0 188 91.5 290.5T530 1556q55 0 104.5-7t94.5-23v-183q-57 41-154 41-94 0-145-51t-51-174v-129h248V860H379V0H182v860H39z"/><glyph unicode="g" horiz-adv-x="1054" d="M57-238q0 55 15.5 97.5t43 74 63.5 53T258 25q-84 45-84 143 0 55 34 102t105 74q-98 41-155.5 124T100 674q0 88 31 157.5T216 950t129 75 165 26q135 0 238-58l290 37V860l-161 2q45-80 45-186 0-88-31-156.5t-85-116-130-72T510 307h-2q-53 0-98-17.5T365 227q0-29 17-46t50-27.5 76-14.5 96-6q98-4 177-23.5T913.5 53t82-93 28.5-138q0-84-35-150.5T889.5-440 736-508.5 537-532q-109 0-198 19t-151.5 56T91-364.5 57-238zm195 50q0-100 84-149.5T553-387q61 0 113.5 11t92.5 35 62.5 60.5T844-195t-22.5 79T761-68.5 670.5-44 557-33q-57 2-105.5 7.5T365-12q-66-33-89.5-76T252-188zm53 860q0-111 58.5-166T510 451q86 0 146.5 56T717 674q0 115-60.5 171T510 901q-88 0-146.5-58.5T305 672z"/><glyph unicode="h" horiz-adv-x="1146" d="M145 0v1536h197v-492l-10-157h14q55 90 140 127t178 37q184 0 266-99.5t82-285.5V0H815v592q0 145-55 213.5T586 874q-104 0-174-62t-70-206V0H145z"/><glyph unicode="i" horiz-adv-x="485" d="M106 1372q0 59 39 97t99 38q53 0 95-37.5t42-97.5q0-57-42-95t-95-38q-59 0-98.5 38t-39.5 95zM145 0v1030h197V0H145z"/><glyph unicode="j" horiz-adv-x="520" d="M-88-322q50-38 121-38h4q39 0 67.5 12t47 46 26.5 95.5T186-47v1077h197V-86q0-123-18.5-209T309-433t-92-75.5T86-532q-59 0-103 9t-71 23v178zm235 1694q0 59 39 97t99 38q53 0 95-37.5t42-97.5q0-57-42-95t-95-38q-59 0-98.5 38t-39.5 95z"/><glyph unicode="k" horiz-adv-x="1028" d="M145 0v1536h197V494l410 536h211L584 543 1014 0H768L449 391 342 254V0H145z"/><glyph unicode="l" horiz-adv-x="555" d="M133 236v1300h197V264q0-68 28.5-88t69.5-20q37-2 60.5 6t46.5 20V12q-23-14-60-23t-88-9q-119 0-186.5 56T133 236z"/><glyph unicode="m" horiz-adv-x="1691" d="M145 0v1030h187V885h14q47 78 123 122t180 44q111 0 178.5-45T926 885h14q27 47 61.5 78.5t74.5 51 82 28 81 8.5q90 0 151.5-26t98.5-76 53.5-121.5T1559 664V0h-197v598q0 143-47 209.5T1165 874q-92 0-153.5-60T950 618V0H754v598q0 143-48.5 209.5T555 874q-90 0-151.5-59T342 618V0H145z"/><glyph unicode="n" horiz-adv-x="1146" d="M145 0v1030h187V885h14q51 88 134 127t184 39q184 0 266-99.5t82-285.5V0H815v592q0 145-55 213.5T586 874q-111 0-177.5-70.5T342 606V0H145z"/><glyph unicode="o" horiz-adv-x="1114" d="M76 512q0 127 35.5 227.5t100 169 153 105.5 192.5 37q100 0 188.5-36t154-105.5 102-169T1038 514t-36.5-226.5-101-168-153-104T557-20q-104 0-192.5 35.5t-153 103-100 167T76 512zm207 0q0-96 21.5-163.5t58-111.5 87-64.5T557 152q55 0 105.5 20.5t88 65.5 59 112.5T831 514q0 94-22.5 164t-60 114-87 65.5T557 879q-57 0-107.5-21.5t-87-65.5-58-114T283 512z"/><glyph unicode="p" horiz-adv-x="1177" d="M145-512v1542h187V885h14q43 72 122 119t204 47q94 0 173-38t136-106.5 89-167 32-221.5q0-127-32-227.5t-89-170-137-105T670-20q-113 0-194 44T346 143h-14l10-163v-492H145zm197 967q0-76 21.5-132.5T422 228t87-57 105-19 106.5 20.5T811 238t61.5 113.5T895 518q0 94-22.5 163T811 794t-90 64.5T612 879q-119 0-194.5-70T342 598V455z"/><glyph unicode="q" horiz-adv-x="1177" d="M76 510q0 125 31.5 224.5t90 170T338 1013t182 38q106 0 184-37t127-127h15v143h186V-512H836V0l10 143h-15Q734-20 509-20h-3q-199 0-314.5 139T76 510zm207 0q0-94 22.5-161.5T367 237t91-64.5T569 152q51 0 99.5 17t85.5 53 59.5 93.5T836 453v141q0 135-74 210t-191 75q-59 0-112-21.5T367 792t-61.5-114T283 510z"/><glyph unicode="r" horiz-adv-x="770" d="M145 0v1030h187V868h14q29 74 97.5 128.5T623 1051q37 0 70.5-3.5T750 1034V836q-31 10-70 17t-88 7q-39 0-83-11t-81-42-61.5-85T342 582V0H145z"/><glyph unicode="s" horiz-adv-x="888" d="M80 55v189q80-57 177-79t175-22q178 0 178 140 0 63-49 95t-115 54q-57 20-120.5 40T210 524.5 124 608 90 741q0 141 100.5 225.5T502 1051q27 0 60.5-2t69.5-6.5 70.5-11.5 59.5-19V831q-59 33-126 44.5T510 887q-94 0-150.5-36T303 743q0-55 44-82.5T457 610q55-18 117.5-37.5T689 518t87-91 35-146q0-61-20.5-116.5T725 68 608 3.5 436-20q-90 0-186 15T80 55z"/><glyph unicode="t" horiz-adv-x="784" d="M39 860v170h143v295h197v-295h321V860H379V379q0-111 32.5-170T537 150h21q52 0 86 8 42 10 71 20V12q-45-18-96.5-25T508-20q-92 0-154.5 26.5T253 84t-54.5 124T182 371v489H39z"/><glyph unicode="u" horiz-adv-x="1140" d="M135 365v665h197V438q0-154 57-218t168-64q39 0 82 13t79 47 58.5 90T799 446v584h196V0H809v143h-14Q748 65 669 22.5T477-20Q305-20 220 80t-85 285z"/><glyph unicode="v" horiz-adv-x="964" d="M10 1030h205l283-770h18l256 770h182L596 0H399z"/><glyph unicode="w" horiz-adv-x="1404" d="M10 1030h193l217-788h18l187 788h178l219-788h16l189 788h168L1128 0H924L709 774h-15L510 0H305z"/><glyph unicode="x" horiz-adv-x="1028" d="M55 1030h232l241-371 240 371h195L629 528 989 0H756L506 383 258 0H63l343 514z"/><glyph unicode="y" horiz-adv-x="978" d="M4 1030h209l289-758h18l268 758h187L420-512H233L414-12z"/><glyph unicode="z" horiz-adv-x="958" d="M90 0v129l528 731H100v170h746V901L317 170h574V0H90z"/><glyph unicode="{" horiz-adv-x="780" d="M82 557v156q59 12 95 32.5t56.5 51T260 869t6 98v336q0 129 24.5 211.5t82 131 151.5 67 236 18.5v-158q-106 0-163.5-13.5T511 1508t-33-106.5-5-176.5V936q0-53-4-101.5t-19.5-87-48-66.5-90.5-40v-10q57-12 90-41t49.5-65 20.5-77.5 4-82.5V139q0-131 5-221t32-146.5 84-81T760-334v-158q-139 0-233.5 23t-152 82-82 162.5T268 41v289q0 31-7 67.5T234.5 468 178 526.5 82 557z"/><glyph unicode="|" horiz-adv-x="595" d="M205-492v2175h186V-492H205z"/><glyph unicode="}" horiz-adv-x="780" d="M20-334q106 0 164 24.5t84.5 81T300-82t5 221v226q0 41 5 82.5t21.5 78.5 49.5 64.5 88 40.5v10q-55 12-88 40t-49.5 66.5-20.5 87-4 101.5v289q0 109-5 177t-32.5 106-85 51.5T20 1573v158q141 0 235.5-18.5t152-67 82-131T514 1303V967q0-55 6-97.5t26.5-73 56.5-51 95-32.5V557q-59-6-96-30.5T544.5 468 518 397t-6-67V41q0-162-24.5-265.5t-82-162.5T254-469 20-492v158z"/><glyph unicode="~" horiz-adv-x="1153" d="M72 604q10 168 90 255t209 87q82 0 138-31.5T611 846t89-69 97-32q57 0 90 38t37 132h157q-8-180-81.5-262T809 571q-84 0-139.5 31T568 671t-91 68.5T371 770q-63 0-97-42t-45-124H72z"/><glyph unicode="¢" horiz-adv-x="915" d="M76 512q0 111 28.5 200t80 156.5 122 111.5 156.5 60v215h143v-204q76-4 129-16.5t94-35.5V809q-49 35-109.5 49T606 874V156q76 2 136.5 20.5T844 229V35q-29-16-87.5-33.5T606-20v-160H463v170Q277 21 176.5 155T76 512zm207 0q0-137 48-218t132-114v670q-82-35-131-118t-49-220z"/><glyph unicode="£" horiz-adv-x="1042" d="M45 0v145q53 43 89 88.5T190.5 334 220 460.5t9 166.5H61v168h168v280q0 104 23.5 192.5t78 153 140.5 100 213 35.5q74 0 148.5-12t121.5-35v-202q-43 29-111.5 46T694 1370q-133 0-190.5-83T446 1053V795h420V627H446q0-86-8-153.5t-23.5-120-37-93.5-49.5-74h667V0H45z"/><glyph unicode="¥" horiz-adv-x="1181" d="M14 1536h234l370-694h11l344 694h194L788 776h263V621H713V434h338V279H713V0H506v279H168v155h338v187H168v155h256z"/><glyph unicode="¨" horiz-adv-x="1034" d="M162 1372q0 55 38 95t97 40q53 0 94-40t41-95q0-57-41-95t-94-38q-59 0-97 38t-38 95zm426 0q0 55 40 95t95 40 95-40 40-95q0-57-40-95t-95-38-95 38-40 95z"/><glyph unicode="©" horiz-adv-x="1783" d="M104 768q0 193 63.5 339t171 246.5 251 151.5 303.5 51q158 0 301-51t251.5-151.5 172-246.5 63.5-339-63.5-340-172-246.5T1194 31 893-20q-160 0-303.5 51t-251 150.5-171 246.5T104 768zm172 0q0-158 49.5-276.5T459 292t195.5-122T891 129q133 0 245.5 41T1331 292t128 199.5 46 276.5q0 145-46 264t-128 202-194.5 128-245.5 45q-127 0-239.5-41T456 1244t-131.5-200.5T276 768zm226 0q0 106 32.5 189t89 141.5T757 1188t167 31q76 0 127-10.5t88-32.5v-172q-43 33-97.5 43T940 1057q-109 0-180.5-67.5T688 768t71.5-218.5T948 485q63 0 115.5 15.5T1151 547V373q-27-16-81-31.5T930 326q-201 0-314.5 115.5T502 768z"/><glyph unicode="«" horiz-adv-x="905" d="M47 498v102l391 416V801L211 555l229-240V82zm381 0v102l387 412V797L588 551l229-244V86z"/><glyph unicode="­" horiz-adv-x="778" d="M88 516v150h602V516H88z"/><glyph unicode="®" horiz-adv-x="1325" d="M117 1010q0 133 44 235.5t117.5 171 173 104T662 1556t209-35.5 173.5-104 119.5-171 44-235.5-44-234.5-119.5-171T871 500t-209-35-210.5 35-173 104.5-117.5 171-44 234.5zm141 0q0-104 32-182t87-130.5 129-79T662 592q88 0 162.5 26.5t128 79 84 130T1067 1010q0 96-30.5 174t-84 132-128 84-162.5 30q-84 0-158-27t-129.5-80-86-131-30.5-182zm213-279v578h197q121 0 171-49.5t50-124.5q0-53-25.5-97.5T782 971l156-240H793L655 944h-61V731H471zm123 305h57q51 0 80 23.5t29 68.5q0 51-31 71t-78 20h-57v-183z"/><glyph unicode="°" horiz-adv-x="645" d="M72 1319q0 121 72.5 182.5T322 1563q49 0 94-15.5t79.5-46.5 55-77 20.5-105-20.5-105.5-55-77-79.5-47-94-16.5q-104 0-177 63.5T72 1319zm139 0q0-59 34-90t79-31q49 0 81.5 31t32.5 90q0 57-32.5 87t-81.5 30q-47 0-80-29t-33-88z"/><glyph unicode="´" horiz-adv-x="698" d="m143 1182 150 299h285l-261-299H143z"/><glyph unicode="·" horiz-adv-x="536" d="M129 596q0 57 40 97t99 40q55 0 96-40t41-97q0-59-41-99.5T268 456q-59 0-99 40t-40 100z"/><glyph unicode="¸" horiz-adv-x="684" d="M168-225q35-33 69.5-44.5T311-281q41 0 57.5 16.5T385-225q0 37-30.5 50T254-162V0h133v-74q70-6 117-43t47-123q0-72-49-116.5T340-401q-53 0-96 8t-76 28v140z"/><glyph unicode="»" horiz-adv-x="905" d="M88 791v221l389-412V498L90 84v217l227 246zm377-9v234l393-416V498L467 82v213l229 248z"/><glyph unicode="ˆ" horiz-adv-x="1024" d="m172 1167 242 314h157l242-314H618l-120 152h-11l-120-152H172z"/><glyph unicode="˚" horiz-adv-x="733" d="M164 1346q0 84 59.5 136t145.5 52q39 0 74.5-14.5t63.5-39 45-59.5 17-75q0-41-17-77t-45-61.5-63.5-40T369 1153q-86 0-145.5 54.5T164 1346zm131 0q0-31 20.5-49.5T369 1278q29 0 51 18.5t22 49.5q0 29-22.5 47t-50.5 18q-33 0-53.5-18.5T295 1346z"/><glyph unicode="˜" horiz-adv-x="716" d="M102 1231v182q12 23 43 44.5t88 21.5q37 0 71-10.5t65.5-23.5 62.5-23.5 62-10.5q43 0 71.5 17.5T614 1489v-182q-29-68-125-68-39 0-72.5 11.5T351 1274t-62.5 23.5T225 1309q-41 0-70.5-21.5T102 1231z"/><glyph unicode="Ё" horiz-adv-x="1089" d="M162 0v1536h831v-182H369V881h510V698H369V182h651V0H162zm98 1749q0 53 36 90t93 37q55 0 92-37t37-90-37-89-92-36q-57 0-93 36t-36 89zm400 0q0 53 35.5 90t93.5 37q57 0 93-37t36-90-36-89-93-36-93 36-36 89z"/><glyph unicode="А" horiz-adv-x="1236" d="m20 0 492 1536h193L1217 0h-211L883 383H322L203 0H20zm357 561h446l-217 674h-18z"/><glyph unicode="Б" horiz-adv-x="1191" d="M162 0v1536h856v-182H369V940h211q143 0 246.5-35t169-98.5 96-150.5 30.5-193q0-88-30.5-172t-97-148.5T824.5 39 573 0H162zm207 182h198q160 0 249 68.5T905 461q0 154-90 224.5T565 756H369V182z"/><glyph unicode="В" horiz-adv-x="1206" d="M162 0v1536h420q131 0 225-27.5t155.5-78 90-121T1081 1153q0-133-67.5-214T827 817v-16q164-37 238-136.5t74-234.5q0-90-28-168t-89-136-162.5-92T610 0H162zm207 174h223q154 0 242 60.5T922 432q0 74-26 126t-72 84-108.5 47.5T578 705H369V174zm0 698h198q141 0 219 70t78 197q0 117-77.5 170T567 1362H369V872z"/><glyph unicode="Г" horiz-adv-x="999" d="M162 0v1536h796v-182H369V0H162z"/><glyph unicode="Д" horiz-adv-x="1406" d="M10 182h109q59 57 99 145.5t64.5 197 37 232.5 17.5 255 4 264-1 260h827V182h181v-499h-177L1149 0H207l-21-317H10v499zm326 0h625v1172H524q0-176-5-349.5t-23.5-328T439 394 336 182z"/><glyph unicode="Е" horiz-adv-x="1089" d="M162 0v1536h831v-182H369V881h510V698H369V182h651V0H162z"/><glyph unicode="Ж" horiz-adv-x="1818" d="m20 0 515 786-486 750h221l439-676 94-37v713h207V823l96 39 438 674h207l-475-731L1798 0h-246l-450 688-92-35V0H803v653l-90 35L260 0H20z"/><glyph unicode="З" horiz-adv-x="1028" d="M63 55v197q82-47 168-69.5T428 160q150 0 232.5 66.5T743 434q0 72-27.5 123T642 642t-109.5 49.5T399 707H260v184h139q135 0 209 69.5t74 196.5q0 109-70.5 163T422 1374q-98 0-177-26.5T90 1251v199q68 57 164 81.5t190 24.5q127 0 214-30.5t140.5-83.5 77-124 23.5-149q0-129-72.5-217T631 825v-18q182-41 256-142.5T961 422q0-92-29-173t-92.5-140.5-165-94T428-20Q326-20 230.5-1T63 55z"/><glyph unicode="И" horiz-adv-x="1396" d="M162 0v1536h207V391h18l647 1145h201V0h-207v1155h-18L362 0H162z"/><glyph unicode="Й" horiz-adv-x="1396" d="M162 0v1536h207V391h18l647 1145h201V0h-207v1155h-18L362 0H162zm223 1870h170q0-29 7-56.5t24.5-49 47.5-35 75-13.5q86 0 120.5 47t34.5 107h170q0-78-24.5-133.5t-68.5-91-103-53-129-17.5q-68 0-127.5 17.5t-102.5 53-68.5 91T385 1870z"/><glyph unicode="К" horiz-adv-x="1226" d="M162 0v1536h207V834l112 38 465 664h213L655 807 1204 0H956L477 686l-108-37V0H162z"/><glyph unicode="Л" horiz-adv-x="1302" d="M25 0v193q4 0 20-3.5t41-3.5q57 0 102 38t77 139.5T313.5 641t16.5 455v440h813V0H936v1354H514v-269q0-240-13.5-441.5t-54-347.5T330 68 127-14q-33 0-57.5 4T25 0z"/><glyph unicode="М" horiz-adv-x="1671" d="M162 0v1536h272L836 313h10l399 1223h264V0h-206v1227h-13L897 0H743L350 1227h-12V0H162z"/><glyph unicode="Н" horiz-adv-x="1384" d="M162 0v1536h207V877h647v659h207V0h-207v694H369V0H162z"/><glyph unicode="О" horiz-adv-x="1409" d="M86 768q0 184 42 330.5t122 248T444.5 1502t260.5 54q147 0 262.5-54t194.5-155.5 121-247 42-329.5-42-330.5-122-249T966.5 34 705-20q-145 0-260 54T250 190.5t-122 249T86 768zm217 0q0-299 108-453.5T705 160q188 0 295.5 155.5T1108 770q0 297-107.5 451.5T705 1376q-186 0-294-154.5T303 768z"/><glyph unicode="П" horiz-adv-x="1351" d="M162 0v1536h1028V0H983v1354H369V0H162z"/><glyph unicode="Р" horiz-adv-x="1122" d="M162 0v1536h395q143 0 242.5-39t161-103.5 89-146.5 27.5-166q0-90-27.5-175t-90-150.5-162-106.5T557 608H369V0H162zm207 793h178q141 0 227 71.5t86 218.5q0 131-86 201t-227 70H369V793z"/><glyph unicode="С" horiz-adv-x="1167" d="M86 768q0 180 45 326.5t131 249T472 1501t282 55q37 0 77.5-3t80.5-9 76-15 63-22v-188q-102 57-283 57-96 0-181-38t-148.5-113.5-99.5-189T303 768q0-313 124-460.5T770 160q29 0 66.5 2t79.5 11 85 26.5 84 48.5V55Q1007 8 917.5-6T750-20q-172 0-297 55T247 192.5t-121 248T86 768z"/><glyph unicode="Т" horiz-adv-x="1138" d="M41 1354v182h1059v-182H674V0H467v1354H41z"/><glyph unicode="У" horiz-adv-x="1187" d="M16 1536h224l370-838h13l352 838h196L526 0H330l180 430z"/><glyph unicode="Ф" horiz-adv-x="1660" d="M68 768q0 139 46 248.5T246 1203t207.5 118 273.5 43v192h207v-192q152-2 273.5-44t206.5-119 131-186.5 46-248.5-46-247.5T1414 334t-207-117-273-41V-20H727v196q-152 0-273.5 41T246 335 114 521.5 68 768zm217 0q0-92 29.5-170t86-133T540 379t187-31v842q-211 0-326.5-114.5T285 768zm649-420q211 0 325.5 113.5T1374 766q0 94-29.5 173t-86 134-138.5 86-186 31V348z"/><glyph unicode="Х" horiz-adv-x="1280" d="m45 0 469 799-446 737h233l334-547 319 547h207L741 817 1235 0h-234L618 629 250 0H45z"/><glyph unicode="Ц" horiz-adv-x="1406" d="M162 0v1536h207V182h594v1354h206V182h181v-499h-176L1153 0H162z"/><glyph unicode="Ч" horiz-adv-x="1247" d="M98 1104v432h207v-418q0-98 20.5-163.5T385 850t93-55.5T600 778q66 0 119 8.5t88 18.5q41 10 72 26v705h206V0H879v655q-35-16-82-28-41-10-96.5-18.5T575 600q-111 0-198.5 28.5t-149 90-95.5 157T98 1104z"/><glyph unicode="Ш" horiz-adv-x="1892" d="M162 0v1536h207V182h475v1354h207V182h475v1354h207V0H162z"/><glyph unicode="Щ" horiz-adv-x="1972" d="M162 0v1536h207V182h475v1354h207V182h475v1354h207V182h180v-499h-176L1714 0H162z"/><glyph unicode="Ъ" horiz-adv-x="1351" d="M37 1354v182h512V971h211q143 0 246.5-37t169-101.5T1272 677t31-198q0-90-31-176t-97.5-153.5-170-108.5T754 0H342v1354H37zM549 182h199q160 0 248.5 74t88.5 221q0 160-90 234.5T745 786H549V182z"/><glyph unicode="Ы" horiz-adv-x="1677" d="M162 0v1536h207V971h211q143 0 246.5-37t169-101.5 96-155.5 30.5-198q0-90-30.5-176t-97-153.5T824.5 41 573 0H162zm207 182h198q160 0 249 74t89 221q0 160-90 234.5T565 786H369V182zM1309 0v1536h207V0h-207z"/><glyph unicode="Ь" horiz-adv-x="1171" d="M162 0v1536h207V971h211q143 0 246.5-37t169-101.5 96-155.5 30.5-198q0-90-30.5-176t-97-153.5T824.5 41 573 0H162zm207 182h198q160 0 249 74t89 221q0 160-90 234.5T565 786H369V182z"/><glyph unicode="Э" horiz-adv-x="1155" d="M100 55v189q82-47 162-65.5T434 160q184 0 294 125t122 409H332v183h516q-23 250-137.5 374.5T420 1376q-92 0-166-19.5T106 1278v188q63 47 151.5 68.5T432 1556q158 0 276.5-55T907 1343.5t121-248 41-325.5q0-375-156-582.5T446-20Q346-20 259-2T100 55z"/><glyph unicode="Ю" horiz-adv-x="1859" d="M162 0v1536h207V877h213q12 156 56 281.5T758 1372t179 136 237 48q145 0 256.5-56t188.5-158.5 116-248 39-323.5-40-324.5-116-250T1429.5 36 1174-20q-135 0-244 51T745.5 175 626 400t-51 294H369V0H162zm631 768q-4-293 100.5-447.5T1174 166q180 0 279 155.5T1556 770q4 291-99 445.5T1174 1370q-176 0-276.5-153.5T793 768z"/><glyph unicode="Я" horiz-adv-x="1187" d="m31 0 413 670q-84 23-144 64.5t-100 98-59.5 122T121 1092q0 84 26.5 163.5t89 142 165 100.5 255.5 38h396V0H846v629H659L272 0H31zm307 1085q0-135 87-203.5T659 813h187v541H655q-145 0-231-68.5T338 1085z"/><glyph unicode="а" horiz-adv-x="1062" d="M96 270q0 88 35 153.5T242.5 530 440 591.5 733 612v47q0 111-63.5 167.5T483 883q-86 0-165.5-20.5T160 791v184q72 43 168 59.5t182 16.5q217 0 318.5-103.5T930 657V0H743v162h-14Q680 76 608.5 28T408-20q-156 0-234 81.5T96 270zm207 23q0-66 40-109t138-43q47 0 92 17.5t81 53.5 57.5 90T733 430v55q-119 0-200.5-10t-133-32.5-74-59.5-22.5-90z"/><glyph unicode="б" horiz-adv-x="1138" d="M76 641q0 236 40 399.5t123 268 212 158 309 65.5q109 6 163 12t70 10v-186q-16-4-72.5-11T770 1346q-133-10-230.5-42t-162-98.5-97-172T242 772h14q31 111 125 177.5t242 66.5q94 0 175-35t140-100.5 93-160.5 34-214q0-123-38-220.5t-104.5-165-157-104T571-20q-96 0-186 29.5t-158.5 105T117 317 76 641zm209-137q0-174 81.5-263T571 152q61 0 113.5 23.5T775 243t60.5 110.5T858 506t-22.5 149.5T775 762t-90 64.5T571 848q-123 0-204.5-86T285 504z"/><glyph unicode="в" horiz-adv-x="1026" d="M145 0v1030h324q129 0 213-20.5t135-55 71.5-81T909 774q0-96-53-151.5T705 549v-14q125-18 187-83t62-153q0-61-21.5-115.5T860 88 727 23.5 526 0H145zm197 147h176q111 0 170.5 40T748 299q0 82-60.5 119T518 455H342V147zm0 449h133q127 0 177 41t50 113q0 59-54 95t-173 36H342V596z"/><glyph unicode="г" horiz-adv-x="796" d="M145 0v1030h633V860H342V0H145z"/><glyph unicode="д" horiz-adv-x="1181" d="M25 170h100q39 49 68.5 119.5t49 172 30 241T283 1030h680V170h174v-440H971L950 0H211l-21-270H25v440zm290 0h449v690H444q0-100-6-199.5T416.5 470t-40-168T315 170z"/><glyph unicode="е" d="M76 512q0 127 34.5 227.5t96 169T354 1014t191 37q90 0 168-26t134-78 89-132 33-186q0-41-4-76t-9-51H289q-2-176 84-263t239-87q92 0 174 22.5T934 250V68Q883 27 792 3.5T588-20q-240 0-376 131T76 512zm211 125h485q-4 72-24.5 121t-53 78.5-73.5 43-86 13.5q-98 0-164-61.5T287 637z"/><glyph unicode="ж" horiz-adv-x="1474" d="m16 0 385 551-376 479h200l340-428 74-18v446h197V584l69 18 340 428h193l-369-471L1458 0h-239L903 449l-67-19V0H639v430l-74 21L248 0H16z"/><glyph unicode="з" horiz-adv-x="899" d="M80 51v180q78-47 158.5-69.5T401 139q111 0 161 43t50 117q0 45-18.5 73.5t-49 45-70.5 24-85 7.5H231v157h158q98 0 142 41t44 107q0 137-202 137-78 0-143.5-18.5T100 815v176q61 29 139 44.5t152 15.5q106 0 180-21.5T691 971t65.5-85T776 786q0-80-47-142t-166-91v-14q135-25 192.5-92.5T813 287q0-59-18.5-114.5T729 74 602 5.5 399-20q-76 0-164 16T80 51z"/><glyph unicode="и" horiz-adv-x="1122" d="M145 0v1030h197V324h14l449 706h174V0H782v709h-16L317 0H145z"/><glyph unicode="й" horiz-adv-x="1122" d="M145 0v1030h197V324h14l449 706h174V0H782v709h-16L317 0H145zm95 1481h174q0-66 31.5-113t117.5-47q84 0 117 47t33 113h174q0-82-24.5-141.5T794 1242t-103.5-55.5T563 1169t-127 18.5-103 56.5-68.5 96.5T240 1481z"/><glyph unicode="к" horiz-adv-x="997" d="M145 0v1030h197V586l84 18 326 426h194L590 561 981 0H741L426 449l-84-23V0H145z"/><glyph unicode="л" horiz-adv-x="1089" d="M39-6v184q6-2 14-4 6-2 14.5-2H84q63 0 101 66.5T243.5 422 269 695.5t5 334.5h672V0H750v860H442q0-170-11-327.5T384 253 284 58.5 111-14q-16 0-28.5 1T59-10z"/><glyph unicode="м" horiz-adv-x="1441" d="M145 0v1030h279l291-782h8l293 782h274V0h-196v799h-17L780 0H625L330 799h-17V0H145z"/><glyph unicode="н" horiz-adv-x="1122" d="M145 0v1030h197V616h440v414h197V0H782v446H342V0H145z"/><glyph unicode="о" horiz-adv-x="1114" d="M76 512q0 127 35.5 227.5t100 169 153 105.5 192.5 37q100 0 188.5-36t154-105.5 102-169T1038 514t-36.5-226.5-101-168-153-104T557-20q-104 0-192.5 35.5t-153 103-100 167T76 512zm207 0q0-96 21.5-163.5t58-111.5 87-64.5T557 152q55 0 105.5 20.5t88 65.5 59 112.5T831 514q0 94-22.5 164t-60 114-87 65.5T557 879q-57 0-107.5-21.5t-87-65.5-58-114T283 512z"/><glyph unicode="п" horiz-adv-x="1101" d="M145 0v1030h813V0H762v860H342V0H145z"/><glyph unicode="р" horiz-adv-x="1177" d="M145-512v1542h187V885h14q43 72 122 119t204 47q94 0 173-38t136-106.5 89-167 32-221.5q0-127-32-227.5t-89-170-137-105T670-20q-113 0-194 44T346 143h-14l10-163v-492H145zm197 967q0-76 21.5-132.5T422 228t87-57 105-19 106.5 20.5T811 238t61.5 113.5T895 518q0 94-22.5 163T811 794t-90 64.5T612 879q-119 0-194.5-70T342 598V455z"/><glyph unicode="с" horiz-adv-x="915" d="M76 512q0 127 38 227.5t103.5 169T374 1014t197 37q90 0 150.5-13.5T829 999V809q-53 39-118.5 52T590 874q-66 0-122-21.5T371 786t-64.5-113.5T283 512q0-94 23.5-161.5T371 240t99-63.5T600 156q158 0 244 73V35q-33-18-97.5-36.5T578-20q-240 0-371 138T76 512z"/><glyph unicode="т" horiz-adv-x="843" d="M20 860v170h803V860H520V0H324v860H20z"/><glyph unicode="у" horiz-adv-x="978" d="M4 1030h209l289-758h18l268 758h187L420-512H233L414-12z"/><glyph unicode="ф" horiz-adv-x="1400" d="M66 512q0 117 35.5 216t104 170 168 111 228.5 40v487h197v-487q129-4 229-43t168-109 103.5-166 35.5-211q0-119-35.5-217T1195 133 1027 21.5 799-18v-494H602v494q-129 2-229.5 41.5T204.5 133t-103 166T66 512zm206 0q0-174 85-271.5T602 139v752q-162-2-246-103.5T272 512zm527-373q162 2 245.5 104.5T1128 520t-85 270.5T799 891V139z"/><glyph unicode="х" horiz-adv-x="1028" d="M55 1030h232l241-371 240 371h195L629 528 989 0H756L506 383 258 0H63l343 514z"/><glyph unicode="ц" horiz-adv-x="1171" d="M145 0v1030h197V170h414v860h196V170h174v-446H961L940 0H145z"/><glyph unicode="ч" horiz-adv-x="1034" d="M90 754v276h197V756q0-111 53-162t170-51q41 0 92 7t92 28v452h197V0H694v408q-41-16-91-26.5T469 371q-193 0-286 93T90 754z"/><glyph unicode="ш" horiz-adv-x="1564" d="M145 0v1030h197V170h342v860h197V170h342v860h196V0H145z"/><glyph unicode="щ" horiz-adv-x="1640" d="M145 0v1030h197V170h342v860h197V170h342v860h196V170h174v-446h-166L1407 0H145z"/><glyph unicode="ъ" horiz-adv-x="1067" d="M16 860v170h428V686h138q129 0 215-28.5T935 582t73.5-108.5T1030 348q0-66-21.5-128T935 108.5t-138-79T582 0H248v860H16zm428-700h156q113 0 168 50t55 136q0 82-55 130t-168 48H444V160z"/><glyph unicode="ы" horiz-adv-x="1392" d="M145 0v1030h197V686h137q129 0 215-28.5T832.5 582t74-108.5T928 348q0-66-21.5-128t-74-111.5-138.5-79T479 0H145zm197 160h156q113 0 168 50t55 136q0 82-55.5 130T498 524H342V160zM1053 0v1030h196V0h-196z"/><glyph unicode="ь" horiz-adv-x="964" d="M145 0v1030h197V686h137q129 0 215-28.5T832.5 582t74-108.5T928 348q0-66-21.5-128t-74-111.5-138.5-79T479 0H145zm197 160h156q113 0 168 50t55 136q0 82-55.5 130T498 524H342V160z"/><glyph unicode="э" horiz-adv-x="917" d="M72 39v190q41-37 105.5-58T328 150q135 0 210.5 72.5T631 455H254v149h377q-16 141-96 209t-205 68q-55 0-123-14.5T82 811v186q41 23 105.5 38.5T350 1051q109 0 199-35t155.5-101.5 101.5-163T842 535q0-260-125-407.5T342-20Q233-20 169.5-2T72 39z"/><glyph unicode="ю" horiz-adv-x="1503" d="M145 0v1030h197V616h166q29 207 152.5 321T965 1051q98 0 183-36t147.5-105.5 98.5-169 36-226.5-36-226.5-98.5-168-147.5-104T965-20q-92 0-173 30.5t-141.5 90T551 247t-47 199H342V0H145zm564 512q0-96 19.5-163.5t54-111.5 82-64.5T965 152t100 20.5 82 65.5 55.5 112.5T1223 514q0 94-21.5 164T1145 792t-82 65.5-98 21.5q-53 0-100.5-21.5t-82-65.5-54-114T709 512z"/><glyph unicode="я" horiz-adv-x="1030" d="m66 0 296 403q-123 29-188 107t-65 190q0 59 21.5 118T201 924t128 76.5 191 29.5h365V0H688v367H565L293 0H66zm249 694q0-82 59.5-129T549 518h139v352H549q-115 0-174.5-49T315 694z"/><glyph unicode="ё" d="M76 512q0 127 34.5 227.5t96 169T354 1014t191 37q90 0 168-26t134-78 89-132 33-186q0-41-4-76t-9-51H289q-2-176 84-263t239-87q92 0 174 22.5T934 250V68Q883 27 792 3.5T588-20q-240 0-376 131T76 512zm102 860q0 55 38 95t97 40q53 0 94-40t41-95q0-57-41-95t-94-38q-59 0-97 38t-38 95zm109-735h485q-4 72-24.5 121t-53 78.5-73.5 43-86 13.5q-98 0-164-61.5T287 637zm317 735q0 55 40 95t95 40 95-40 40-95q0-57-40-95t-95-38-95 38-40 95z"/><glyph horiz-adv-x="938"/><glyph horiz-adv-x="1876"/><glyph horiz-adv-x="938"/><glyph horiz-adv-x="1876"/><glyph horiz-adv-x="625"/><glyph horiz-adv-x="469"/><glyph horiz-adv-x="312"/><glyph horiz-adv-x="312"/><glyph horiz-adv-x="234"/><glyph horiz-adv-x="375"/><glyph horiz-adv-x="104"/><glyph unicode="‐" horiz-adv-x="778" d="M88 516v150h602V516H88z"/><glyph unicode="‑" horiz-adv-x="778" d="M88 516v150h602V516H88z"/><glyph unicode="‒" horiz-adv-x="778" d="M88 516v150h602V516H88z"/><glyph unicode="–" horiz-adv-x="1310" d="M88 516v150h1135V516H88z"/><glyph unicode="—" horiz-adv-x="1720" d="M88 516v150h1544V516H88z"/><glyph unicode="‘" horiz-adv-x="522" d="M124 1171q-1 41 15 86l107 299h122l-79-254q53-8 81.5-44.5T399 1167q0-57-40-97t-99-40q-43 0-74 18.5t-46 50-16 72.5z"/><glyph unicode="’" horiz-adv-x="522" d="M123 1420q0 57 40 97t99 40q43 0 74-18.5t46-50 16-72.5-15-86l-107-299H154l79 254q-53 8-81.5 44.5T123 1420z"/><glyph unicode="‚" horiz-adv-x="522" d="M123 115q0 57 40 97t99 40q43 0 74-18.5t46-50 16-72.5-15-86L276-274H154l79 254q-53 8-81.5 44.5T123 115z"/><glyph unicode="“" horiz-adv-x="878" d="M124 1171q-1 41 15 86l107 299h122l-79-254q53-8 81.5-44.5T399 1167q0-57-40-97t-99-40q-43 0-74 18.5t-46 50-16 72.5zm357 0q-1 41 15 86l107 299h122l-79-254q53-8 81.5-44.5T756 1167q0-57-40-97t-99-40q-43 0-74 18.5t-46 50-16 72.5z"/><glyph unicode="”" horiz-adv-x="878" d="M123 1420q0 57 40 97t99 40q43 0 74-18.5t46-50 16-72.5-15-86l-107-299H154l79 254q-53 8-81.5 44.5T123 1420zm358 0q0 57 40 97t99 40q43 0 74-18.5t46-50 16-72.5-15-86l-107-299H512l79 254q-53 8-81.5 44.5T481 1420z"/><glyph unicode="„" horiz-adv-x="878" d="M123 115q0 57 40 97t99 40q43 0 74-18.5t46-50 16-72.5-15-86L276-274H154l79 254q-53 8-81.5 44.5T123 115zm358 0q0 57 40 97t99 40q43 0 74-18.5t46-50 16-72.5-15-86L634-274H512l79 254q-53 8-81.5 44.5T481 115z"/><glyph unicode="•" horiz-adv-x="620" d="M113 610q0 84 57 140.5T311 807q82 0 139.5-56.5T508 610q0-82-57.5-139T311 414q-84 0-141 57t-57 139z"/><glyph unicode="…" horiz-adv-x="1316" d="M123 115q0 57 40 97t99 40q55 0 96-40t41-97q0-59-41-99.5T262-25q-59 0-99 40t-40 100zm397 0q0 57 40 97t99 40q55 0 96-40t41-97q0-59-41-99.5T659-25q-59 0-99 40t-40 100zm396 0q0 57 40 97t99 40q55 0 96-40t41-97q0-59-41-99.5T1055-25q-59 0-99 40t-40 100z"/><glyph horiz-adv-x="375"/><glyph unicode="‹" horiz-adv-x="548" d="M33 500v110l440 394V786L211 555l264-229V106z"/><glyph unicode="›" horiz-adv-x="548" d="M74 784v220l442-394V500L76 106v218l264 229z"/><glyph horiz-adv-x="469"/><glyph unicode="€" horiz-adv-x="1341" d="m55 537 68 159h139q-2 16-2 35v76.5l2 40.5H55l68 160h160q53 258 218 403t427 145q37 0 78-3t80.5-9 75.5-15 63-22v-188q-102 57-283 57-152 0-269.5-92T506 1008h565l-63-160H479q-2-18-2-37.5v-79l2-35.5h471l-63-159H500q41-195 155.5-286T944 160q29 0 67 2t80 11 85 26.5 84 48.5V55q-78-47-168.5-61T924-20q-285 0-442.5 147T279 537H55z"/><glyph unicode="₽" horiz-adv-x="1189" d="M55 326v161h174v150H55v162h174v737h396q143 0 242.5-38t161-100.5 89-142T1145 1094q0-86-27.5-168t-90-146.5-162-103.5T625 637H436V487h479V326H436V0H229v326H55zm381 473h178q141 0 227.5 72.5T928 1087q0 129-86 198t-228 69H436V799z"/><glyph unicode="™" horiz-adv-x="1380" d="M20 1411v125h504v-125H344V922H201v489H20zm566-489v614h202l146-428 149 428h195V922h-143v442h-2L977 922H872l-155 442h-4V922H586z"/><glyph unicode="◼" horiz-adv-x="1034" d="M0 0v1034h1034V0H0z"/></font>
</defs>
</svg>
