<svg width="100" height="100" viewBox="0 0 100 100" fill="none" xmlns="http://www.w3.org/2000/svg">
<path d="M0 0H4V4H0V0ZM4 0H8V4H4V0ZM8 0H12V4H8V0ZM12 0H16V4H12V0ZM16 0H20V4H16V0ZM20 0H24V4H20V0ZM24 0H28V4H24V0ZM40 0H44V4H40V0ZM48 0H52V4H48V0ZM52 0H56V4H52V0ZM64 0H68V4H64V0ZM72 0H76V4H72V0ZM76 0H80V4H76V0ZM80 0H84V4H80V0ZM84 0H88V4H84V0ZM88 0H92V4H88V0ZM92 0H96V4H92V0ZM96 0H100V4H96V0ZM0 4H4V8H0V4ZM24 4H28V8H24V4ZM32 4H36V8H32V4ZM40 4H44V8H40V4ZM56 4H60V8H56V4ZM60 4H64V8H60V4ZM64 4H68V8H64V4ZM72 4H76V8H72V4ZM96 4H100V8H96V4ZM0 8H4V12H0V8ZM8 8H12V12H8V8ZM12 8H16V12H12V8ZM16 8H20V12H16V8ZM24 8H28V12H24V8ZM48 8H52V12H48V8ZM56 8H60V12H56V8ZM64 8H68V12H64V8ZM72 8H76V12H72V8ZM80 8H84V12H80V8ZM84 8H88V12H84V8ZM88 8H92V12H88V8ZM96 8H100V12H96V8ZM0 12H4V16H0V12ZM8 12H12V16H8V12ZM12 12H16V16H12V12ZM16 12H20V16H16V12ZM24 12H28V16H24V12ZM32 12H36V16H32V12ZM36 12H40V16H36V12ZM40 12H44V16H40V12ZM48 12H52V16H48V12ZM52 12H56V16H52V12ZM56 12H60V16H56V12ZM72 12H76V16H72V12ZM80 12H84V16H80V12ZM84 12H88V16H84V12ZM88 12H92V16H88V12ZM96 12H100V16H96V12ZM0 16H4V20H0V16ZM8 16H12V20H8V16ZM12 16H16V20H12V16ZM16 16H20V20H16V16ZM24 16H28V20H24V16ZM36 16H40V20H36V16ZM52 16H56V20H52V16ZM56 16H60V20H56V16ZM72 16H76V20H72V16ZM80 16H84V20H80V16ZM84 16H88V20H84V16ZM88 16H92V20H88V16ZM96 16H100V20H96V16ZM0 20H4V24H0V20ZM24 20H28V24H24V20ZM32 20H36V24H32V20ZM36 20H40V24H36V20ZM44 20H48V24H44V20ZM48 20H52V24H48V20ZM60 20H64V24H60V20ZM64 20H68V24H64V20ZM72 20H76V24H72V20ZM96 20H100V24H96V20ZM0 24H4V28H0V24ZM4 24H8V28H4V24ZM8 24H12V28H8V24ZM12 24H16V28H12V24ZM16 24H20V28H16V24ZM20 24H24V28H20V24ZM24 24H28V28H24V24ZM32 24H36V28H32V24ZM40 24H44V28H40V24ZM48 24H52V28H48V24ZM56 24H60V28H56V24ZM64 24H68V28H64V24ZM72 24H76V28H72V24ZM76 24H80V28H76V24ZM80 24H84V28H80V24ZM84 24H88V28H84V24ZM88 24H92V28H88V24ZM92 24H96V28H92V24ZM96 24H100V28H96V24ZM36 28H40V32H36V28ZM40 28H44V32H40V28ZM44 28H48V32H44V28ZM56 28H60V32H56V28ZM60 28H64V32H60V28ZM64 28H68V32H64V28ZM0 32H4V36H0V32ZM4 32H8V36H4V32ZM8 32H12V36H8V32ZM12 32H16V36H12V32ZM16 32H20V36H16V32ZM24 32H28V36H24V32ZM28 32H32V36H28V32ZM32 32H36V36H32V32ZM36 32H40V36H36V32ZM44 32H48V36H44V32ZM60 32H64V36H60V32ZM64 32H68V36H64V32ZM68 32H72V36H68V32ZM76 32H80V36H76V32ZM84 32H88V36H84V32ZM92 32H96V36H92V32ZM4 36H8V40H4V36ZM8 36H12V40H8V36ZM12 36H16V40H12V36ZM16 36H20V40H16V36ZM40 36H44V40H40V36ZM48 36H52V40H48V36ZM52 36H56V40H52V36ZM64 36H68V40H64V36ZM76 36H80V40H76V36ZM92 36H96V40H92V36ZM0 40H4V44H0V40ZM8 40H12V44H8V40ZM12 40H16V44H12V40ZM24 40H28V44H24V40ZM32 40H36V44H32V40ZM40 40H44V44H40V40ZM52 40H56V44H52V40ZM56 40H60V44H56V40ZM60 40H64V44H60V40ZM68 40H72V44H68V40ZM72 40H76V44H72V40ZM84 40H88V44H84V40ZM92 40H96V44H92V40ZM96 40H100V44H96V40ZM4 44H8V48H4V44ZM8 44H12V48H8V44ZM12 44H16V48H12V44ZM20 44H24V48H20V44ZM28 44H32V48H28V44ZM32 44H36V48H32V44ZM48 44H52V48H48V44ZM52 44H56V48H52V44ZM68 44H72V48H68V44ZM72 44H76V48H72V44ZM76 44H80V48H76V44ZM96 44H100V48H96V44ZM0 48H4V52H0V48ZM20 48H24V52H20V48ZM24 48H28V52H24V48ZM32 48H36V52H32V48ZM36 48H40V52H36V48ZM40 48H44V52H40V48ZM48 48H52V52H48V48ZM56 48H60V52H56V48ZM60 48H64V52H60V48ZM64 48H68V52H64V48ZM68 48H72V52H68V48ZM72 48H76V52H72V48ZM76 48H80V52H76V48ZM80 48H84V52H80V48ZM88 48H92V52H88V48ZM92 48H96V52H92V48ZM96 48H100V52H96V48ZM0 52H4V56H0V52ZM4 52H8V56H4V52ZM8 52H12V56H8V52ZM12 52H16V56H12V52ZM16 52H20V56H16V52ZM28 52H32V56H28V52ZM32 52H36V56H32V52ZM36 52H40V56H36V52ZM64 52H68V56H64V52ZM76 52H80V56H76V52ZM84 52H88V56H84V52ZM92 52H96V56H92V52ZM0 56H4V60H0V56ZM24 56H28V60H24V56ZM28 56H32V60H28V56ZM44 56H48V60H44V56ZM48 56H52V60H48V56ZM60 56H64V60H60V56ZM68 56H72V60H68V56ZM76 56H80V60H76V56ZM80 56H84V60H80V56ZM84 56H88V60H84V56ZM92 56H96V60H92V56ZM96 56H100V60H96V56ZM0 60H4V64H0V60ZM8 60H12V64H8V60ZM12 60H16V64H12V60ZM20 60H24V64H20V60ZM40 60H44V64H40V60ZM44 60H48V64H44V60ZM56 60H60V64H56V60ZM64 60H68V64H64V60ZM72 60H76V64H72V60ZM76 60H80V64H76V60ZM80 60H84V64H80V60ZM96 60H100V64H96V60ZM0 64H4V68H0V64ZM8 64H12V68H8V64ZM24 64H28V68H24V64ZM40 64H44V68H40V64ZM44 64H48V68H44V64ZM64 64H68V68H64V64ZM68 64H72V68H68V64ZM72 64H76V68H72V64ZM76 64H80V68H76V64ZM80 64H84V68H80V64ZM88 64H92V68H88V64ZM32 68H36V72H32V68ZM40 68H44V72H40V68ZM48 68H52V72H48V68ZM52 68H56V72H52V68ZM56 68H60V72H56V68ZM60 68H64V72H60V68ZM64 68H68V72H64V68ZM80 68H84V72H80V68ZM84 68H88V72H84V68ZM0 72H4V76H0V72ZM4 72H8V76H4V72ZM8 72H12V76H8V72ZM12 72H16V76H12V72ZM16 72H20V76H16V72ZM20 72H24V76H20V72ZM24 72H28V76H24V72ZM32 72H36V76H32V72ZM36 72H40V76H36V72ZM40 72H44V76H40V72ZM52 72H56V76H52V72ZM56 72H60V76H56V72ZM64 72H68V76H64V72ZM72 72H76V76H72V72ZM80 72H84V76H80V72ZM88 72H92V76H88V72ZM92 72H96V76H92V72ZM96 72H100V76H96V72ZM0 76H4V80H0V76ZM24 76H28V80H24V76ZM36 76H40V80H36V76ZM40 76H44V80H40V76ZM48 76H52V80H48V76ZM52 76H56V80H52V76ZM60 76H64V80H60V76ZM64 76H68V80H64V76ZM80 76H84V80H80V76ZM84 76H88V80H84V76ZM92 76H96V80H92V76ZM0 80H4V84H0V80ZM8 80H12V84H8V80ZM12 80H16V84H12V80ZM16 80H20V84H16V80ZM24 80H28V84H24V80ZM32 80H36V84H32V80ZM36 80H40V84H36V80ZM48 80H52V84H48V80ZM56 80H60V84H56V80ZM60 80H64V84H60V80ZM64 80H68V84H64V80ZM68 80H72V84H68V80ZM72 80H76V84H72V80ZM76 80H80V84H76V80ZM80 80H84V84H80V80ZM88 80H92V84H88V80ZM96 80H100V84H96V80ZM0 84H4V88H0V84ZM8 84H12V88H8V84ZM12 84H16V88H12V84ZM16 84H20V88H16V84ZM24 84H28V88H24V84ZM32 84H36V88H32V84ZM40 84H44V88H40V84ZM60 84H64V88H60V84ZM64 84H68V88H64V84ZM68 84H72V88H68V84ZM72 84H76V88H72V84ZM80 84H84V88H80V84ZM84 84H88V88H84V84ZM88 84H92V88H88V84ZM92 84H96V88H92V84ZM96 84H100V88H96V84ZM0 88H4V92H0V88ZM8 88H12V92H8V88ZM12 88H16V92H12V88ZM16 88H20V92H16V88ZM24 88H28V92H24V88ZM32 88H36V92H32V88ZM36 88H40V92H36V88ZM44 88H48V92H44V88ZM48 88H52V92H48V88ZM60 88H64V92H60V88ZM84 88H88V92H84V88ZM88 88H92V92H88V88ZM96 88H100V92H96V88ZM0 92H4V96H0V92ZM24 92H28V96H24V92ZM32 92H36V96H32V92ZM40 92H44V96H40V92ZM44 92H48V96H44V92ZM56 92H60V96H56V92ZM64 92H68V96H64V92ZM68 92H72V96H68V92ZM72 92H76V96H72V92ZM76 92H80V96H76V92ZM80 92H84V96H80V92ZM84 92H88V96H84V92ZM96 92H100V96H96V92ZM0 96H4V100H0V96ZM4 96H8V100H4V96ZM8 96H12V100H8V96ZM12 96H16V100H12V96ZM16 96H20V100H16V96ZM20 96H24V100H20V96ZM24 96H28V100H24V96ZM32 96H36V100H32V96ZM40 96H44V100H40V96ZM44 96H48V100H44V96ZM60 96H64V100H60V96ZM68 96H72V100H68V96ZM72 96H76V100H72V96ZM76 96H80V100H76V96ZM80 96H84V100H80V96ZM84 96H88V100H84V96ZM88 96H92V100H88V96ZM92 96H96V100H92V96ZM96 96H100V100H96V96Z" fill="#1F2229"/>
</svg>
